<svg 
version="1.1"
 xmlns="http://www.w3.org/2000/svg"
  viewBox="0 0 100 100">
	<symbol viewBox="0 0 100 100" id="inbox">
	<path d="M30.1,16.5h39.7c2.3,0,4.2,0.7,5.7,2.2c1.7,1.3,2.8,3.2,3.4,5.4l8.4,35.3c0.2,0.8,0.3,1.7,0.3,2.5v14.3
		c-0.1,2.8-1,5.1-2.8,7c-1.8,1.9-4,2.9-6.6,3H21.7c-2.6-0.1-4.9-1.1-6.6-3c-1.8-1.9-2.7-4.2-2.8-7V61.9c0-0.8,0.1-1.7,0.3-2.5
		L21,24.1c0.6-2.3,1.7-4.1,3.4-5.4C26,17.2,27.9,16.5,30.1,16.5z M30.1,26.4l-7.1,29.9h7.5c2,0.1,3.4,1,4.3,2.8l2.1,4.4
		c0.9,1.8,2.3,2.7,4.3,2.8h17.6c2-0.1,3.4-1,4.3-2.8l2.1-4.4c0.9-1.8,2.3-2.7,4.3-2.8h7.5l-7.1-29.9H30.1z"/>
		</symbol>
</svg>
