<?xml version="1.0" standalone="no"?>
<!DOCTYPE svg PUBLIC "-//W3C//DTD SVG 20010904//EN"
 "http://www.w3.org/TR/2001/REC-SVG-20010904/DTD/svg10.dtd">
<svg version="1.0" xmlns="http://www.w3.org/2000/svg"
 width="1000.000000pt" height="1000.000000pt" viewBox="0 0 1000.000000 1000.000000"
 preserveAspectRatio="xMidYMid meet">
<metadata>
Created by potrace 1.14, written by Peter Selinger 2001-2017
</metadata>
<g transform="translate(0.000000,1000.000000) scale(0.100000,-0.100000)"
fill="#000000" stroke="none">
<path d="M5008 9945 c-2 -1 -35 -5 -74 -8 -100 -9 -290 -51 -344 -77 -8 -4
-46 -22 -85 -39 -136 -63 -215 -120 -335 -242 -94 -95 -179 -211 -206 -280 -9
-24 -20 -48 -24 -54 -14 -20 -58 -161 -76 -240 -11 -50 -18 -133 -20 -220 -8
-428 174 -782 520 -1011 229 -152 547 -226 807 -188 367 54 627 211 850 514
39 53 83 144 117 245 29 85 36 110 48 180 3 17 10 50 15 75 13 67 3 324 -15
405 -16 70 -49 182 -65 220 -82 192 -203 345 -382 482 -160 122 -377 204 -604
228 -33 4 -74 8 -92 10 -17 2 -33 2 -35 0z"/>
<path d="M1754 7305 c-113 -33 -196 -84 -289 -179 -124 -124 -190 -243 -211
-380 -3 -21 -8 -48 -10 -60 -7 -32 -6 -149 1 -187 11 -60 12 -64 20 -94 14
-52 66 -148 109 -200 98 -118 208 -193 406 -274 114 -47 291 -122 355 -151
153 -68 540 -204 740 -259 61 -17 124 -35 140 -40 32 -10 224 -57 265 -65 14
-3 80 -17 147 -31 68 -14 132 -26 143 -28 10 -2 23 -6 26 -10 9 -8 9 -1517 1
-1608 -10 -109 -41 -218 -153 -544 -58 -170 -112 -330 -119 -355 -7 -25 -46
-139 -85 -255 -159 -465 -561 -1661 -565 -1685 -32 -159 -22 -327 26 -454 58
-156 203 -304 384 -390 103 -50 98 -49 281 -53 140 -2 170 0 220 17 149 51
261 137 355 275 70 102 99 171 186 435 46 140 175 534 288 875 244 743 269
819 270 825 0 3 20 62 44 131 69 202 145 270 301 268 109 -1 178 -32 223 -102
20 -30 95 -227 102 -267 2 -12 297 -907 304 -925 5 -11 25 -69 44 -130 184
-574 313 -948 352 -1020 108 -197 263 -326 445 -371 54 -13 103 -16 232 -12
l164 4 74 38 c299 154 434 373 423 686 -4 135 -13 168 -135 530 -60 179 -111
330 -112 335 -2 6 -6 17 -9 25 -3 8 -34 98 -68 200 -34 102 -162 484 -286 850
-297 881 -291 862 -312 961 -23 109 -22 101 -24 961 l-2 727 45 11 c25 7 56
14 70 17 166 30 680 177 925 263 50 17 95 33 100 34 6 2 17 6 25 9 8 4 51 20
95 36 44 16 152 58 240 94 479 196 518 214 611 288 166 132 252 295 256 487 2
73 -7 167 -22 222 -5 19 -13 52 -18 72 -26 100 -159 283 -265 361 -104 78
-223 115 -372 116 -143 2 -241 -26 -565 -161 -299 -125 -517 -206 -705 -263
-66 -20 -140 -42 -165 -50 -50 -15 -250 -65 -290 -72 -14 -2 -50 -10 -80 -18
-30 -7 -73 -16 -95 -21 -22 -4 -44 -8 -50 -9 -37 -9 -310 -51 -385 -60 -14 -1
-47 -5 -75 -9 -93 -11 -140 -15 -235 -22 -52 -3 -115 -8 -140 -10 -62 -4 -537
-5 -630 0 -97 5 -248 16 -280 21 -14 2 -59 7 -100 10 -41 4 -84 9 -95 11 -11
2 -44 7 -74 10 -30 3 -64 8 -75 10 -12 2 -41 7 -66 10 -25 3 -53 7 -62 10 -10
3 -30 7 -45 10 -25 4 -151 28 -213 40 -246 49 -658 173 -950 287 -193 76 -523
216 -529 225 -14 21 -151 45 -271 48 -108 3 -136 0 -206 -21z"/>
</g>
</svg>
