
<svg id="angry" xmlns="http://www.w3.org/2000/svg" xmlns:xlink="http://www.w3.org/1999/xlink" viewBox="0 0 100 100">
<g>
	<path d="M16.8,29.4C25.9,22,37,18.3,50,18.3c13,0,24.1,3.7,33.2,11.1C92.4,36.8,97,45.7,97,56.2c0,10.5-4.6,19.5-13.7,26.9
		C74.1,90.5,63,94.2,50,94.2c-13,0-24.1-3.7-33.2-11.1C7.6,75.7,3,66.8,3,56.2C3,45.7,7.6,36.8,16.8,29.4z M23.2,77.9
		c7.4,6,16.3,9,26.8,9c10.5,0,19.4-3,26.8-9c7.4-6,11.1-13.2,11.1-21.7c0-8.5-3.7-15.7-11.1-21.7s-16.3-9-26.8-9
		c-10.5,0-19.4,3-26.8,9S12.1,47.8,12.1,56.2C12.1,64.7,15.8,71.9,23.2,77.9z M40.9,53.8c0,1.3-0.6,2.5-1.8,3.4
		c-1.2,1-2.6,1.5-4.3,1.5c-1.6,0-3.1-0.5-4.3-1.5c-1.2-1-1.8-2.1-1.8-3.4c0-0.8,0.3-1.6,0.9-2.4L24.4,50c-1.1-0.3-2-0.9-2.7-1.8
		c-0.6-0.9-0.8-1.8-0.4-2.8c0.4-1,1.1-1.7,2.2-2.2c1.1-0.5,2.2-0.6,3.5-0.3l15.2,3.7c1.1,0.3,2,0.9,2.7,1.8c0.6,0.9,0.8,1.8,0.4,2.8
		C44.6,52.9,43.2,53.8,40.9,53.8z M50,64.8c6.7,0,12.2,2.1,16.5,6.3c0.8,0.7,1.1,1.6,0.9,2.6c-0.1,1-0.6,1.8-1.5,2.4
		c-1,0.7-2.1,1-3.4,0.9c-1.3-0.1-2.3-0.6-3-1.4c-2.4-2.2-5.6-3.4-9.5-3.4c-3.9,0-7.1,1.1-9.5,3.4c-0.8,0.8-1.8,1.3-3,1.4
		c-1.3,0.1-2.4-0.2-3.3-0.8c-0.9-0.7-1.5-1.5-1.6-2.5c-0.1-1,0.2-1.9,0.9-2.6C37.8,66.9,43.3,64.8,50,64.8z M76.4,43.2
		c1.1,0.5,1.8,1.3,2.2,2.2c0.4,1,0.3,1.9-0.4,2.8c-0.6,0.9-1.5,1.5-2.7,1.8l-5.3,1.2c0.6,0.9,0.9,1.8,0.9,2.6c0,1.3-0.6,2.5-1.8,3.4
		c-1.2,1-2.6,1.5-4.3,1.5c-1.6,0-3.1-0.5-4.3-1.5c-1.2-1-1.8-2.1-1.8-3.4c-2.3,0-3.7-0.9-4.4-2.6c-0.4-1-0.3-2,0.4-2.8
		c0.6-0.9,1.5-1.5,2.7-1.8l15.2-3.7C74.2,42.6,75.4,42.7,76.4,43.2z"/>
</g>
</svg>
