<svg version="1.1"
 xmlns="http://www.w3.org/2000/svg"
	viewBox="0 0 100 100">
	<path d="M16.7,11.1c3.1-3.1,6.9-4.6,11.6-4.8h48.9h5.4c1.6,0,2.9,0.5,3.9,1.5s1.5,2.3,1.5,3.9v54.4c0,1.6-0.5,2.9-1.5,3.9
		s-2.3,1.5-3.9,1.5v10.9c1.6,0,2.9,0.5,3.9,1.5s1.5,2.3,1.5,3.9c0,1.6-0.5,2.9-1.5,3.9s-2.3,1.5-3.9,1.5h-5.4H28.2
		c-4.6-0.1-8.5-1.7-11.6-4.8S12,81.6,11.9,77V22.6C12,18,13.6,14.1,16.7,11.1z M24.3,80.9c1,1,2.3,1.5,3.9,1.5h43.5V71.6H28.2
		c-1.6,0-2.9,0.5-3.9,1.5s-1.5,2.3-1.5,3.9C22.8,78.6,23.3,79.9,24.3,80.9z M31.1,43.4c-0.5,1.6,0.1,2.8,1.5,3.6l13.1,5.6l-13.1,5.6
		c-1.5,0.8-2,2-1.5,3.6c0.8,1.5,2,2,3.6,1.5l18-7.8l18,7.8c1.6,0.5,2.8-0.1,3.6-1.5c0.5-1.6-0.1-2.8-1.5-3.6l-13.1-5.6l13.1-5.6
		c1.5-0.8,2-2,1.5-3.6c-0.8-1.5-2-2-3.6-1.5l-18,7.8l-18-7.8C33.1,41.4,31.9,41.9,31.1,43.4z M62.4,17.7c-2.6-2-5.8-3.1-9.7-3.2
		c-3.9,0.1-7.1,1.2-9.7,3.2c-2.5,2-3.8,4.6-3.9,7.6c0.1,3.6,1.9,6.5,5.4,8.7v2.2c0.1,1.7,1,2.6,2.7,2.7h10.9c1.7-0.1,2.6-1,2.7-2.7
		V34c3.5-2,5.3-4.9,5.4-8.7C66.2,22.3,64.9,19.7,62.4,17.7z M50,25.3c-0.1,1.7-1,2.6-2.7,2.7c-1.7-0.1-2.6-1-2.7-2.7
		c0.1-1.7,1-2.6,2.7-2.7C49,22.7,49.9,23.6,50,25.3z M58.2,22.6c1.7,0.1,2.6,1,2.7,2.7c-0.1,1.7-1,2.6-2.7,2.7
		c-1.7-0.1-2.6-1-2.7-2.7C55.5,23.6,56.5,22.7,58.2,22.6z"/>
</svg>
