<svg version="1.1"
  xmlns="http://www.w3.org/2000/svg"
   xmlns:xlink="http://www.w3.org/1999/xlink"
	  viewBox="0 0 100 100">
	<path d="M10.8,23c2-1.9,4.5-2.9,7.5-3h44c5.9,0.2,10.9,2.2,14.8,6.2s6,8.9,6.2,14.8v20.9h4.2c1.2,0,2.2,0.4,3,1.2s1.2,1.8,1.2,3
		c0,1.2-0.4,2.2-1.2,3s-1.8,1.2-3,1.2h-4.2H45.5c-0.1,3.6-1.3,6.5-3.7,8.9s-5.3,3.6-8.9,3.7c-3.6-0.1-6.5-1.3-8.9-3.7
		s-3.6-5.3-3.7-8.9h-2.1c-3-0.1-5.5-1.1-7.5-3c-1.9-2-2.9-4.5-3-7.5V30.5C7.9,27.5,8.9,25,10.8,23z M17.4,33.7
		c-0.8,0.8-1.2,1.8-1.2,3v8.4c0,1.2,0.4,2.2,1.2,3s1.8,1.2,3,1.2h16.8c1.2,0,2.2-0.4,3-1.2s1.2-1.8,1.2-3v-8.4c0-1.2-0.4-2.2-1.2-3
		s-1.8-1.2-3-1.2H20.4C19.1,32.6,18.1,33,17.4,33.7z M38.4,73.4c1-2.1,1-4.2,0-6.3c-1.3-2-3.1-3.1-5.5-3.1c-2.4,0.1-4.2,1.1-5.5,3.1
		c-1,2.1-1,4.2,0,6.3c1.3,2,3.1,3.1,5.5,3.1C35.3,76.4,37.1,75.4,38.4,73.4z M66.4,61.9V49.3h-4.2c-1.3-0.1-2-0.8-2.1-2.1
		c0.1-1.3,0.8-2,2.1-2.1h4.2v-8.4c0-1.2-0.4-2.2-1.2-3s-1.8-1.2-3-1.2h-8.4c-1.2,0-2.2,0.4-3,1.2c-0.8,0.8-1.2,1.8-1.2,3v25.1H66.4z
		"/>
</svg>
