<!DOCTYPE svg PUBLIC "-//W3C//DTD SVG 1.1//EN" "http://www.w3.org/Graphics/SVG/1.1/DTD/svg11.dtd">
<svg version="1.1" xmlns="http://www.w3.org/2000/svg" viewBox="0 0 100 100">
	<path d="M86.5,73.4c0.7,0,1.3,0.2,1.8,0.7c0.5,0.5,0.7,1.1,0.7,1.8v2.5c0,0.7-0.2,1.3-0.7,1.8c-0.5,0.5-1,0.7-1.8,0.7H15.9
		c-1.3,0-2.5-0.5-3.4-1.5c-1-1-1.4-2.2-1.4-3.5V23.4c0-0.7,0.2-1.3,0.7-1.8s1-0.7,1.8-0.7h2.4c0.7,0,1.3,0.2,1.8,0.7
		c0.5,0.5,0.7,1.1,0.7,1.8v50H86.5z M27.6,65.9c-0.5,0-1-0.2-1.4-0.6c-0.4-0.4-0.6-0.9-0.6-1.4V52.9c0-0.5,0.2-1,0.6-1.4
		c0.4-0.4,0.9-0.6,1.4-0.6H31c0.5,0,1,0.2,1.4,0.6c0.4,0.4,0.6,0.9,0.6,1.4v10.9c0,0.5-0.2,1-0.6,1.4c-0.4,0.4-0.9,0.6-1.4,0.6H27.6
		z M42.2,65.9c-0.5,0-1-0.2-1.4-0.6c-0.4-0.4-0.6-0.9-0.6-1.4V32.9c0-0.5,0.2-1,0.6-1.4c0.4-0.4,0.9-0.6,1.4-0.6h3.3
		c0.5,0,1,0.2,1.4,0.6c0.4,0.4,0.6,0.9,0.6,1.4v30.9c0,0.5-0.2,1-0.6,1.4c-0.4,0.4-0.9,0.6-1.4,0.6H42.2z M56.9,65.9
		c-0.5,0-1-0.2-1.4-0.6c-0.4-0.4-0.6-0.9-0.6-1.4V42.9c0-0.5,0.2-1,0.6-1.4c0.4-0.4,0.9-0.6,1.4-0.6h3.3c0.5,0,1,0.2,1.4,0.6
		c0.4,0.4,0.6,0.9,0.6,1.4v20.9c0,0.5-0.2,1-0.6,1.4c-0.4,0.4-0.9,0.6-1.4,0.6H56.9z M71.5,65.9c-0.5,0-1-0.2-1.4-0.6
		c-0.4-0.4-0.6-0.9-0.6-1.4V27.9c0-0.5,0.2-1,0.6-1.4c0.4-0.4,0.9-0.6,1.4-0.6h3.3c0.5,0,1,0.2,1.4,0.6c0.4,0.4,0.6,0.9,0.6,1.4
		v35.9c0,0.5-0.2,1-0.6,1.4c-0.4,0.4-0.9,0.6-1.4,0.6H71.5z"/>
</svg>
