<svg version="1.1"
 xmlns="http://www.w3.org/2000/svg" 
	 >
	 <symbol viewBox="0 0 100 100" id="checkmark">
	 <path d="M68.9,17.2c5.8,3.4,10.4,8,13.8,13.8c3.4,5.8,5.1,12.1,5.1,18.9c0,6.8-1.7,13.1-5.1,18.9c-3.4,5.8-8,10.4-13.8,13.8
		c-5.8,3.4-12.1,5.1-18.9,5.1c-6.8,0-13.1-1.7-18.9-5.1c-5.8-3.4-10.4-8-13.8-13.8c-3.4-5.8-5.1-12.1-5.1-18.9
		c0-6.8,1.7-13.1,5.1-18.9c3.4-5.8,8-10.4,13.8-13.8c5.8-3.4,12.1-5.1,18.9-5.1C56.8,12.1,63.1,13.8,68.9,17.2z M34.7,23.5
		C30,26.2,26.3,30,23.5,34.6c-2.7,4.7-4.1,9.8-4.1,15.3s1.4,10.6,4.1,15.3c2.7,4.7,6.5,8.4,11.1,11.1c4.7,2.7,9.8,4.1,15.3,4.1
		c5.5,0,10.6-1.4,15.3-4.1c4.7-2.7,8.4-6.5,11.1-11.1c2.7-4.7,4.1-9.8,4.1-15.3s-1.4-10.6-4.1-15.3c-2.7-4.7-6.5-8.4-11.1-11.1
		c-4.7-2.7-9.8-4.1-15.3-4.1C44.4,19.4,39.4,20.7,34.7,23.5z M71.9,40.6c0,0.5-0.2,0.9-0.6,1.2L45.1,67.9c-0.4,0.4-0.9,0.6-1.4,0.6
		c-0.5,0-0.9-0.2-1.2-0.6L28.6,54c-0.4-0.4-0.6-0.9-0.6-1.4c0-0.5,0.2-0.9,0.6-1.2l3.5-3.5c0.3-0.3,0.7-0.5,1.2-0.5
		c0.5,0,1,0.2,1.4,0.5l9,9.3l21.7-21.5c0.3-0.3,0.7-0.5,1.2-0.5c0.5,0,1,0.2,1.4,0.6l3.4,3.4C71.7,39.6,71.9,40.1,71.9,40.6z"/>
	 </symbol>
	
</svg>
