<svg version="1.1"
    xmlns="http://www.w3.org/2000/svg">
      <symbol id="book-dead" viewBox="0 0 100 100" fill="currentcolor">
        <path d="M16.7,11.1c3.1-3.1,6.9-4.6,11.6-4.8h48.9h5.4c1.6,0,2.9,0.5,3.9,1.5s1.5,2.3,1.5,3.9v54.4c0,1.6-0.5,2.9-1.5,3.9
		s-2.3,1.5-3.9,1.5v10.9c1.6,0,2.9,0.5,3.9,1.5s1.5,2.3,1.5,3.9c0,1.6-0.5,2.9-1.5,3.9s-2.3,1.5-3.9,1.5h-5.4H28.2
		c-4.6-0.1-8.5-1.7-11.6-4.8S12,81.6,11.9,77V22.6C12,18,13.6,14.1,16.7,11.1z M24.3,80.9c1,1,2.3,1.5,3.9,1.5h43.5V71.6H28.2
		c-1.6,0-2.9,0.5-3.9,1.5s-1.5,2.3-1.5,3.9C22.8,78.6,23.3,79.9,24.3,80.9z M31.1,43.4c-0.5,1.6,0.1,2.8,1.5,3.6l13.1,5.6l-13.1,5.6
		c-1.5,0.8-2,2-1.5,3.6c0.8,1.5,2,2,3.6,1.5l18-7.8l18,7.8c1.6,0.5,2.8-0.1,3.6-1.5c0.5-1.6-0.1-2.8-1.5-3.6l-13.1-5.6l13.1-5.6
		c1.5-0.8,2-2,1.5-3.6c-0.8-1.5-2-2-3.6-1.5l-18,7.8l-18-7.8C33.1,41.4,31.9,41.9,31.1,43.4z M62.4,17.7c-2.6-2-5.8-3.1-9.7-3.2
		c-3.9,0.1-7.1,1.2-9.7,3.2c-2.5,2-3.8,4.6-3.9,7.6c0.1,3.6,1.9,6.5,5.4,8.7v2.2c0.1,1.7,1,2.6,2.7,2.7h10.9c1.7-0.1,2.6-1,2.7-2.7
		V34c3.5-2,5.3-4.9,5.4-8.7C66.2,22.3,64.9,19.7,62.4,17.7z M50,25.3c-0.1,1.7-1,2.6-2.7,2.7c-1.7-0.1-2.6-1-2.7-2.7
		c0.1-1.7,1-2.6,2.7-2.7C49,22.7,49.9,23.6,50,25.3z M58.2,22.6c1.7,0.1,2.6,1,2.7,2.7c-0.1,1.7-1,2.6-2.7,2.7
		c-1.7-0.1-2.6-1-2.7-2.7C55.5,23.6,56.5,22.7,58.2,22.6z"/>
      </symbol>
      <symbol id="biohazard" viewbox="0 0 100 100">
        <path d="M34.2,15.4c0.8,0.1,1.1,0.5,1,1.4c-1.2,3.3-1.4,6.7-0.7,10.1c0.7,3.5,2.4,6.4,4.9,8.9c2.6,2.4,6.1,3.6,10.5,3.7
        c4.5-0.1,8-1.3,10.5-3.7c2.6-2.5,4.2-5.4,4.9-8.9c0.7-3.5,0.5-6.8-0.7-10.1c-0.2-0.8,0.1-1.3,1-1.4c0.3,0,0.5,0.1,0.7,0.3
        c4.2,4.3,6.4,9.7,6.6,16.1c0,3.6-0.8,7-2.3,10c3.1,0.4,6,1.3,8.8,2.9c4.8,2.7,8.2,6.5,10,11.2c0.1,0.3,0,0.5-0.1,0.7
        c-0.4,0.5-0.8,0.6-1.4,0.3c-3.9-3.5-8.4-5.1-13.5-5.1c-5.2,0-9.5,2.6-13,7.9c-3,5.6-3.2,10.5-0.7,14.9c2.6,4.4,6.3,7.3,11.3,8.8
        c0.5,0.3,0.7,0.7,0.5,1.4c-0.2,0.2-0.4,0.3-0.7,0.4c-5.1,0.8-10.1,0-14.9-2.6c-2.8-1.6-5.2-3.6-7-6c-1.8,2.4-4.1,4.4-6.8,6
        c-4.9,2.6-9.9,3.4-15,2.6c-0.3-0.1-0.5-0.2-0.7-0.4c-0.2-0.6,0-1.1,0.5-1.4c5-1.5,8.8-4.4,11.3-8.8c2.6-4.4,2.3-9.3-0.7-14.9
        c-3.5-5.3-7.8-7.9-13-7.9c-5.1-0.1-9.6,1.6-13.4,5.1c-0.6,0.4-1.1,0.3-1.5-0.3c-0.2-0.2-0.2-0.4-0.1-0.7c1.8-4.7,5.1-8.5,9.8-11.2
        c2.8-1.5,5.8-2.5,8.9-2.9c-1.6-3-2.3-6.3-2.3-10c0.2-6.5,2.4-11.8,6.6-16.1C33.7,15.5,34,15.4,34.2,15.4z M35.5,72.5
        c-0.6,1.1-1.4,2.1-2.3,3c-3.1-2.3-5.6-5.1-7.5-8.3c-2-3.3-3.3-6.9-3.8-10.8c1.3-0.3,2.5-0.4,3.7-0.3c1.9,0,3.7,0.5,5.5,1.6
        c1,3.6,2.9,6.7,5.6,9.3C36.7,69.1,36.4,70.9,35.5,72.5z M49.9,24.1c3.9,0,7.6,0.8,11.1,2.3c-0.3,1.1-0.7,2.1-1.2,3.1
        c-0.9,1.7-2.3,3.1-4.1,4.1c-1.8-0.5-3.7-0.8-5.7-0.8c-2,0-3.9,0.3-5.7,0.8c-1.8-1-3.2-2.4-4.1-4.1c-0.5-1-1-2.1-1.2-3.1
        C42.2,24.9,45.9,24.1,49.9,24.1z M43.4,52.6c0.1,2.5,1.2,4.4,3.3,5.7c2.2,1.1,4.4,1.1,6.6,0c2.1-1.4,3.2-3.3,3.3-5.7
        c-0.1-2.5-1.2-4.4-3.3-5.7c-2.2-1.1-4.4-1.1-6.6,0C44.6,48.2,43.5,50.1,43.4,52.6z M69,57.8c1.7-1.1,3.6-1.6,5.5-1.6
        c1.2-0.1,2.4,0,3.7,0.3c-0.5,3.9-1.8,7.5-3.8,10.8c-1.9,3.3-4.4,6.1-7.5,8.3c-0.9-0.9-1.7-1.9-2.3-3c-0.9-1.6-1.3-3.5-1.1-5.5
        C66.1,64.5,67.9,61.4,69,57.8z"/>
      </symbol>
      <symbol id="caravan" viewbox="0 0 100 100">
        <path d="M10.8,23c2-1.9,4.5-2.9,7.5-3h44c5.9,0.2,10.9,2.2,14.8,6.2s6,8.9,6.2,14.8v20.9h4.2c1.2,0,2.2,0.4,3,1.2s1.2,1.8,1.2,3
		c0,1.2-0.4,2.2-1.2,3s-1.8,1.2-3,1.2h-4.2H45.5c-0.1,3.6-1.3,6.5-3.7,8.9s-5.3,3.6-8.9,3.7c-3.6-0.1-6.5-1.3-8.9-3.7
		s-3.6-5.3-3.7-8.9h-2.1c-3-0.1-5.5-1.1-7.5-3c-1.9-2-2.9-4.5-3-7.5V30.5C7.9,27.5,8.9,25,10.8,23z M17.4,33.7
		c-0.8,0.8-1.2,1.8-1.2,3v8.4c0,1.2,0.4,2.2,1.2,3s1.8,1.2,3,1.2h16.8c1.2,0,2.2-0.4,3-1.2s1.2-1.8,1.2-3v-8.4c0-1.2-0.4-2.2-1.2-3
		s-1.8-1.2-3-1.2H20.4C19.1,32.6,18.1,33,17.4,33.7z M38.4,73.4c1-2.1,1-4.2,0-6.3c-1.3-2-3.1-3.1-5.5-3.1c-2.4,0.1-4.2,1.1-5.5,3.1
		c-1,2.1-1,4.2,0,6.3c1.3,2,3.1,3.1,5.5,3.1C35.3,76.4,37.1,75.4,38.4,73.4z M66.4,61.9V49.3h-4.2c-1.3-0.1-2-0.8-2.1-2.1
		c0.1-1.3,0.8-2,2.1-2.1h4.2v-8.4c0-1.2-0.4-2.2-1.2-3s-1.8-1.2-3-1.2h-8.4c-1.2,0-2.2,0.4-3,1.2c-0.8,0.8-1.2,1.8-1.2,3v25.1H66.4z
		"/>
      </symbol>
    </svg>