<svg version="1.1"
 xmlns="http://www.w3.org/2000/svg"
	 >
	<symbol viewBox="0 0 100 100" id="spinner">
	<path d="M18.5,58.5c-2.7-0.1-4.8-1.3-6.4-3.6c-1.2-2.4-1.2-4.8,0-7.2c1.5-2.3,3.6-3.5,6.4-3.6c2.7,0.1,4.8,1.3,6.4,3.6
		c1.2,2.4,1.2,4.8,0,7.2C23.4,57.2,21.3,58.4,18.5,58.5z M32.9,34.3c-2,1.9-4.3,2.5-7,1.8c-2.7-0.8-4.4-2.5-5.2-5.1
		c-0.7-2.6-0.1-4.9,1.8-6.9c2-2,4.4-2.7,7.1-2.1c2.7,0.8,4.4,2.6,5.2,5.3C35.6,29.9,35,32.3,32.9,34.3z M32.9,78.5
		c-2,1.9-4.3,2.5-7,1.8c-2.7-0.7-4.4-2.4-5.2-5.1c-0.7-2.6-0.1-4.9,1.8-6.9c2-1.9,4.3-2.5,7-1.8c2.6,0.8,4.3,2.5,5.2,5.1
		C35.5,74.2,34.9,76.5,32.9,78.5z M57.3,20c-0.1,2.7-1.3,4.8-3.6,6.3c-2.4,1.2-4.8,1.2-7.3,0c-2.3-1.5-3.5-3.6-3.6-6.3
		c0.1-2.7,1.3-4.8,3.6-6.3c2.4-1.2,4.8-1.2,7.3,0C56,15.2,57.2,17.3,57.3,20z M57.3,82.6c-0.1,2.7-1.3,4.8-3.6,6.3
		c-2.4,1.2-4.8,1.2-7.3,0c-2.3-1.5-3.5-3.6-3.6-6.3c0.1-2.7,1.3-4.8,3.6-6.3c2.4-1.2,4.8-1.2,7.3,0C56,77.7,57.2,79.8,57.3,82.6z
		 M67.2,78.5c-1.9-2-2.5-4.3-1.8-6.9c0.8-2.6,2.5-4.3,5.2-5.1c2.6-0.7,4.9-0.1,7,1.8c1.9,2,2.5,4.3,1.8,6.9
		c-0.7,2.7-2.4,4.4-5.2,5.1C71.5,81,69.2,80.4,67.2,78.5z M88.8,51.3c-0.1,2.7-1.3,4.8-3.6,6.3c-2.4,1.2-4.8,1.2-7.3,0
		c-2.3-1.5-3.5-3.6-3.6-6.3c0.1-2.7,1.3-4.8,3.6-6.3c2.4-1.2,4.8-1.2,7.3,0C87.5,46.5,88.7,48.6,88.8,51.3z"/>
	</symbol>
</svg>
