<svg version="1.1"
 xmlns="http://www.w3.org/2000/svg"
 viewBox="0 0 100 100">
	<path d="M28.5,20.1c0.1-2.6,1-4.8,2.6-6.6c1.7-1.6,3.9-2.5,6.6-2.6h23.6c2.6,0.1,4.8,1,6.6,2.6c1.6,1.8,2.5,3.9,2.6,6.6v6.6H81
		c3,0.1,5.4,1.1,7.4,3.1s3,4.4,3.1,7.4v15.7H60H39H7.5V37.2c0.1-3,1.1-5.4,3.1-7.4s4.4-3,7.4-3.1h10.5V20.1z M91.5,58.2v21
		c-0.1,3-1.1,5.4-3.1,7.4s-4.4,3-7.4,3.1H18c-3-0.1-5.4-1.1-7.4-3.1s-3-4.4-3.1-7.4v-21H39v5.3c0,1.5,0.5,2.8,1.5,3.8
		s2.2,1.5,3.8,1.5h10.5c1.5,0,2.8-0.5,3.8-1.5S60,65,60,63.4v-5.3H91.5z M37.7,18.8c-0.8,0.1-1.2,0.5-1.3,1.3v6.6h26.2v-6.6
		c-0.1-0.8-0.5-1.2-1.3-1.3H37.7z"/>
</svg>
