<?xml version="1.0" encoding="utf-8"?>
<!-- Generator: Adobe Illustrator 23.1.0, SVG Export Plug-In . SVG Version: 6.00 Build 0)  -->
<svg version="1.1" id="Layer_1" xmlns="http://www.w3.org/2000/svg" xmlns:xlink="http://www.w3.org/1999/xlink" x="0px" y="0px"
	 width="100px" height="100px" viewBox="0 0 100 100" style="enable-background:new 0 0 100 100;" xml:space="preserve">
<g>
	<path d="M91.1,53.2c-0.9,0.9-2,1.4-3.3,1.5H83l0.1,23.8c-0.1,0.4-0.1,0.8-0.1,1.2V82c0,1.7-0.6,3.1-1.8,4.2
		c-1.1,1.2-2.5,1.8-4.2,1.8h-2.4c-0.2,0-0.3,0-0.4,0c-0.2,0-0.4,0-0.6,0h-4.9h-3.6c-1.7,0-3.1-0.6-4.2-1.8c-1.2-1.1-1.8-2.5-1.8-4.2
		v-3.6v-9.5c0-1.4-0.4-2.5-1.3-3.4s-2-1.3-3.4-1.3H45c-1.4,0-2.5,0.4-3.4,1.3s-1.3,2-1.3,3.4v9.5V82c0,1.7-0.6,3.1-1.8,4.2
		c-1.1,1.2-2.5,1.8-4.2,1.8h-3.6H26c-0.1,0-0.2,0-0.3,0c-0.1,0-0.2,0-0.3,0c-0.2,0-0.4,0-0.6,0h-2.4c-1.7,0-3.1-0.6-4.2-1.8
		c-1.2-1.1-1.8-2.5-1.8-4.2V65.4c0-0.1,0-0.2,0-0.4V54.7h-4.8c-1.4-0.1-2.5-0.6-3.4-1.5S7,51.2,7,49.9c0-1.4,0.5-2.6,1.5-3.6
		l38-33.3c1.1-0.9,2.2-1.3,3.3-1.2c1.2,0,2.2,0.3,3.1,1l38,33.4c1.2,1,1.7,2.2,1.6,3.6C92.4,51.2,92,52.3,91.1,53.2z"/>
</g>
<g>
</g>
<g>
</g>
<g>
</g>
<g>
</g>
<g>
</g>
<g>
</g>
<g>
</g>
<g>
</g>
<g>
</g>
<g>
</g>
<g>
</g>
<g>
</g>
<g>
</g>
<g>
</g>
<g>
</g>
</svg>
