<?xml version="1.0" encoding="utf-8"?>
<!-- Generator: Adobe Illustrator 23.1.0, SVG Export Plug-In . SVG Version: 6.00 Build 0)  -->
<svg version="1.1" id="Layer_1" xmlns="http://www.w3.org/2000/svg" xmlns:xlink="http://www.w3.org/1999/xlink" x="0px" y="0px"
	 width="100px" height="100px" viewBox="0 0 100 100" style="enable-background:new 0 0 100 100;" xml:space="preserve">
<g>
	<path d="M76.6,44.4L73,48.2l-33,33c-1.8,1.8-3.9,3-6.3,3.7l-19.9,6c-1.6,0.3-2.9-0.1-4-1.2c-1.1-1.1-1.4-2.4-1-3.8l5.8-20.1
		c0.8-2.3,2-4.4,3.8-6.1l33-33l3.7-3.8l2-1.8l5.6,5.6L73,36.9l5.6,5.6L76.6,44.4z M35.1,72.5h-5.3c-1.7-0.2-2.5-1.1-2.7-2.7v-5.3
		L23.3,66c-0.4,0.7-0.8,1.4-1.2,2.2l-3.8,12.9l13.1-3.8c0.8-0.2,1.5-0.6,2.2-1.2l1.5-3.8V72.5z M60.8,37.1c1.1-1.3,1.1-2.6,0-3.8
		c-1.2-1-2.4-1-3.7,0L33.3,57.2c-1.1,1.2-1.1,2.5,0,3.8c1.2,1,2.4,1,3.7,0L60.8,37.1z M68.8,9.2c2.2-2.1,4.7-3.2,7.5-3.2
		c2.9,0,5.4,1.1,7.5,3.2l6.6,6.5c2,2.2,3,4.7,3,7.5c0,2.9-1,5.4-3,7.6l-2.5,2.3l-3.8,3.8l-1.8,1.8l-5.6-5.6L66.3,22.8l-5.6-5.6
		l2-1.8l3.7-3.8L68.8,9.2z"/>
</g>
<g>
</g>
<g>
</g>
<g>
</g>
<g>
</g>
<g>
</g>
<g>
</g>
<g>
</g>
<g>
</g>
<g>
</g>
<g>
</g>
<g>
</g>
<g>
</g>
<g>
</g>
<g>
</g>
<g>
</g>
</svg>
