<svg version="1.1" 
xmlns="http://www.w3.org/2000/svg" >
	<symbol id="universal-access" viewBox="0 0 100 100">
		<path d="M15.8,30.1c3.5-6,8.3-10.8,14.5-14.5c6.3-3.5,12.9-5.2,19.8-5.2c6.9,0,13.5,1.8,19.7,5.2c6.2,3.7,11,8.5,14.5,14.5
		c3.4,6,5.1,12.6,5.2,19.8c-0.1,7.2-1.9,13.8-5.2,19.7c-3.5,6-8.3,10.8-14.5,14.5c-6.3,3.5-12.9,5.2-19.7,5.2
		c-6.9,0-13.5-1.8-19.8-5.2c-6.2-3.7-11-8.5-14.5-14.5c-3.4-6-5.1-12.5-5.2-19.7C10.6,42.6,12.4,36,15.8,30.1z M35.5,36.5
		c-2.2-0.7-3.8-0.1-4.9,2c-0.7,2.2-0.1,3.8,2,4.8l1.9,0.8c2.6,1.1,5.3,2,8.2,2.5v7.9c0,0.6-0.1,1.2-0.3,1.9l-4.5,13.3
		c-0.5,2.3,0.3,3.9,2.5,4.8c2.2,0.5,3.7-0.3,4.6-2.5l3.7-11.3c0.3-0.6,0.8-0.9,1.4-0.9c0.7,0,1.2,0.3,1.4,0.9l3.7,11.3
		c0.9,2.2,2.5,3,4.8,2.5c2.1-0.9,2.8-2.5,2.3-4.8l-4.5-13.3c-0.2-0.6-0.3-1.2-0.3-1.9v-7.7c2.9-0.6,5.7-1.5,8.3-2.6l1.9-0.8
		c2-1,2.6-2.6,1.9-4.8c-1-2.1-2.6-2.7-4.8-2l-1.9,0.8c-4.1,1.8-8.4,2.6-12.8,2.6c-4.4,0-8.7-0.9-12.8-2.6l-1.9-0.8H35.5z M55.4,31.9
		c1-2.1,1-4.1,0-6.2c-1.2-2-3-3-5.4-3.1c-2.4,0.1-4.2,1.1-5.4,3.1c-1,2.1-1,4.1,0,6.2c1.2,2,3,3,5.4,3.1
		C52.4,34.9,54.2,33.9,55.4,31.9z"/>
	</symbol>
	<symbol id="briefcase" viewBox="0 0 100 100">
		<path d="M28.5,20.1c0.1-2.6,1-4.8,2.6-6.6c1.7-1.6,3.9-2.5,6.6-2.6h23.6c2.6,0.1,4.8,1,6.6,2.6c1.6,1.8,2.5,3.9,2.6,6.6v6.6H81
		c3,0.1,5.4,1.1,7.4,3.1s3,4.4,3.1,7.4v15.7H60H39H7.5V37.2c0.1-3,1.1-5.4,3.1-7.4s4.4-3,7.4-3.1h10.5V20.1z M91.5,58.2v21
		c-0.1,3-1.1,5.4-3.1,7.4s-4.4,3-7.4,3.1H18c-3-0.1-5.4-1.1-7.4-3.1s-3-4.4-3.1-7.4v-21H39v5.3c0,1.5,0.5,2.8,1.5,3.8
		s2.2,1.5,3.8,1.5h10.5c1.5,0,2.8-0.5,3.8-1.5S60,65,60,63.4v-5.3H91.5z M37.7,18.8c-0.8,0.1-1.2,0.5-1.3,1.3v6.6h26.2v-6.6
		c-0.1-0.8-0.5-1.2-1.3-1.3H37.7z"/>
	</symbol>
	<symbol id="home" viewBox="0 0 100 100">
		<path d="M91.1,53.2c-0.9,0.9-2,1.4-3.3,1.5H83l0.1,23.8c-0.1,0.4-0.1,0.8-0.1,1.2V82c0,1.7-0.6,3.1-1.8,4.2
		c-1.1,1.2-2.5,1.8-4.2,1.8h-2.4c-0.2,0-0.3,0-0.4,0c-0.2,0-0.4,0-0.6,0h-4.9h-3.6c-1.7,0-3.1-0.6-4.2-1.8c-1.2-1.1-1.8-2.5-1.8-4.2
		v-3.6v-9.5c0-1.4-0.4-2.5-1.3-3.4s-2-1.3-3.4-1.3H45c-1.4,0-2.5,0.4-3.4,1.3s-1.3,2-1.3,3.4v9.5V82c0,1.7-0.6,3.1-1.8,4.2
		c-1.1,1.2-2.5,1.8-4.2,1.8h-3.6H26c-0.1,0-0.2,0-0.3,0c-0.1,0-0.2,0-0.3,0c-0.2,0-0.4,0-0.6,0h-2.4c-1.7,0-3.1-0.6-4.2-1.8
		c-1.2-1.1-1.8-2.5-1.8-4.2V65.4c0-0.1,0-0.2,0-0.4V54.7h-4.8c-1.4-0.1-2.5-0.6-3.4-1.5S7,51.2,7,49.9c0-1.4,0.5-2.6,1.5-3.6
		l38-33.3c1.1-0.9,2.2-1.3,3.3-1.2c1.2,0,2.2,0.3,3.1,1l38,33.4c1.2,1,1.7,2.2,1.6,3.6C92.4,51.2,92,52.3,91.1,53.2z"/>
	</symbol>
	<symbol id="pencil" viewBox="0 0 100 100">
		<path d="M76.6,44.4L73,48.2l-33,33c-1.8,1.8-3.9,3-6.3,3.7l-19.9,6c-1.6,0.3-2.9-0.1-4-1.2c-1.1-1.1-1.4-2.4-1-3.8l5.8-20.1
		c0.8-2.3,2-4.4,3.8-6.1l33-33l3.7-3.8l2-1.8l5.6,5.6L73,36.9l5.6,5.6L76.6,44.4z M35.1,72.5h-5.3c-1.7-0.2-2.5-1.1-2.7-2.7v-5.3
		L23.3,66c-0.4,0.7-0.8,1.4-1.2,2.2l-3.8,12.9l13.1-3.8c0.8-0.2,1.5-0.6,2.2-1.2l1.5-3.8V72.5z M60.8,37.1c1.1-1.3,1.1-2.6,0-3.8
		c-1.2-1-2.4-1-3.7,0L33.3,57.2c-1.1,1.2-1.1,2.5,0,3.8c1.2,1,2.4,1,3.7,0L60.8,37.1z M68.8,9.2c2.2-2.1,4.7-3.2,7.5-3.2
		c2.9,0,5.4,1.1,7.5,3.2l6.6,6.5c2,2.2,3,4.7,3,7.5c0,2.9-1,5.4-3,7.6l-2.5,2.3l-3.8,3.8l-1.8,1.8l-5.6-5.6L66.3,22.8l-5.6-5.6
		l2-1.8l3.7-3.8L68.8,9.2z"/>
	</symbol>
	<symbol id="tool" viewBox="0 0 100 100">
		<path d="M21.9,11.2l16.3,12.5c0.9,0.7,1.4,1.7,1.4,3v8.4l17,17c2.3-1.1,4.7-1.5,7.3-1.1c2.5,0.3,4.7,1.4,6.7,3.3l17.5,17.5
		c0.9,1,1.4,2.2,1.4,3.6c0,1.4-0.5,2.6-1.4,3.6l-10,10c-1,0.9-2.2,1.4-3.6,1.4C73.2,90.4,72,90,71,89L53.5,71.5
		c-1.9-2-3-4.2-3.3-6.7c-0.4-2.6-0.1-5.1,1.1-7.3l-17-17h-8.4c-1.3,0-2.2-0.5-3-1.4L10.3,22.8c-1.1-1.8-1-3.4,0.3-5l6.3-6.3
		C18.5,10.2,20.1,10.1,21.9,11.2z M12.7,72.3L35.8,49l9.7,9.7c-0.8,3.4-0.6,6.8,0.6,10.2L27.7,87.3c-2.1,2.1-4.6,3.1-7.5,3.1
		c-3-0.1-5.5-1.1-7.5-3.1c-2-2-3-4.5-3.1-7.5C9.5,76.9,10.6,74.4,12.7,72.3z M18.3,77.9c0.2,2.3,1.5,3.5,3.8,3.8
		c2.3-0.2,3.5-1.5,3.8-3.8c-0.2-2.3-1.5-3.5-3.8-3.8C19.8,74.4,18.5,75.6,18.3,77.9z M89.5,32.9c-0.1,4.6-1.3,8.6-3.6,12.2
		c-2.4,3.6-5.5,6.4-9.4,8.3l-2.5-2.5c-2.2-2.2-4.7-3.7-7.7-4.5c-2.8-0.7-5.7-0.7-8.6,0L44.5,33.1v-0.2c0.2-6.4,2.4-11.7,6.6-15.9
		c4.3-4.2,9.6-6.4,15.9-6.6c1.7,0,3.3,0.2,4.8,0.5c0.8,0.3,1.4,0.8,1.6,1.6c0.2,0.8,0,1.6-0.6,2.2l-10,10c-0.5,0.5-0.8,1.1-0.8,1.9
		v8.9c0.1,1.6,0.9,2.4,2.5,2.5h8.9c0.7,0,1.4-0.3,1.9-0.8l10-9.8c0.6-0.6,1.4-0.9,2.2-0.8c0.7,0.2,1.3,0.8,1.6,1.7
		C89.4,29.7,89.5,31.3,89.5,32.9z"/>
	</symbol>
</svg>
