<?xml version="1.0" encoding="utf-8"?>
<!-- Generator: Adobe Illustrator 23.1.0, SVG Export Plug-In . SVG Version: 6.00 Build 0)  -->
<svg version="1.1" id="Layer_1" xmlns="http://www.w3.org/2000/svg" xmlns:xlink="http://www.w3.org/1999/xlink" x="0px" y="0px"
	 width="100px" height="100px" viewBox="0 0 100 100" style="enable-background:new 0 0 100 100;" xml:space="preserve">
<g>
	<path d="M21.9,11.2l16.3,12.5c0.9,0.7,1.4,1.7,1.4,3v8.4l17,17c2.3-1.1,4.7-1.5,7.3-1.1c2.5,0.3,4.7,1.4,6.7,3.3l17.5,17.5
		c0.9,1,1.4,2.2,1.4,3.6c0,1.4-0.5,2.6-1.4,3.6l-10,10c-1,0.9-2.2,1.4-3.6,1.4C73.2,90.4,72,90,71,89L53.5,71.5
		c-1.9-2-3-4.2-3.3-6.7c-0.4-2.6-0.1-5.1,1.1-7.3l-17-17h-8.4c-1.3,0-2.2-0.5-3-1.4L10.3,22.8c-1.1-1.8-1-3.4,0.3-5l6.3-6.3
		C18.5,10.2,20.1,10.1,21.9,11.2z M12.7,72.3L35.8,49l9.7,9.7c-0.8,3.4-0.6,6.8,0.6,10.2L27.7,87.3c-2.1,2.1-4.6,3.1-7.5,3.1
		c-3-0.1-5.5-1.1-7.5-3.1c-2-2-3-4.5-3.1-7.5C9.5,76.9,10.6,74.4,12.7,72.3z M18.3,77.9c0.2,2.3,1.5,3.5,3.8,3.8
		c2.3-0.2,3.5-1.5,3.8-3.8c-0.2-2.3-1.5-3.5-3.8-3.8C19.8,74.4,18.5,75.6,18.3,77.9z M89.5,32.9c-0.1,4.6-1.3,8.6-3.6,12.2
		c-2.4,3.6-5.5,6.4-9.4,8.3l-2.5-2.5c-2.2-2.2-4.7-3.7-7.7-4.5c-2.8-0.7-5.7-0.7-8.6,0L44.5,33.1v-0.2c0.2-6.4,2.4-11.7,6.6-15.9
		c4.3-4.2,9.6-6.4,15.9-6.6c1.7,0,3.3,0.2,4.8,0.5c0.8,0.3,1.4,0.8,1.6,1.6c0.2,0.8,0,1.6-0.6,2.2l-10,10c-0.5,0.5-0.8,1.1-0.8,1.9
		v8.9c0.1,1.6,0.9,2.4,2.5,2.5h8.9c0.7,0,1.4-0.3,1.9-0.8l10-9.8c0.6-0.6,1.4-0.9,2.2-0.8c0.7,0.2,1.3,0.8,1.6,1.7
		C89.4,29.7,89.5,31.3,89.5,32.9z"/>
</g>
<g>
</g>
<g>
</g>
<g>
</g>
<g>
</g>
<g>
</g>
<g>
</g>
<g>
</g>
<g>
</g>
<g>
</g>
<g>
</g>
<g>
</g>
<g>
</g>
<g>
</g>
<g>
</g>
<g>
</g>
</svg>
