<svg version="1.1" 
xmlns="http://www.w3.org/2000/svg"
viewBox="0 0 100 100">
	<path d="M15.8,30.1c3.5-6,8.3-10.8,14.5-14.5c6.3-3.5,12.9-5.2,19.8-5.2c6.9,0,13.5,1.8,19.7,5.2c6.2,3.7,11,8.5,14.5,14.5
		c3.4,6,5.1,12.6,5.2,19.8c-0.1,7.2-1.9,13.8-5.2,19.7c-3.5,6-8.3,10.8-14.5,14.5c-6.3,3.5-12.9,5.2-19.7,5.2
		c-6.9,0-13.5-1.8-19.8-5.2c-6.2-3.7-11-8.5-14.5-14.5c-3.4-6-5.1-12.5-5.2-19.7C10.6,42.6,12.4,36,15.8,30.1z M35.5,36.5
		c-2.2-0.7-3.8-0.1-4.9,2c-0.7,2.2-0.1,3.8,2,4.8l1.9,0.8c2.6,1.1,5.3,2,8.2,2.5v7.9c0,0.6-0.1,1.2-0.3,1.9l-4.5,13.3
		c-0.5,2.3,0.3,3.9,2.5,4.8c2.2,0.5,3.7-0.3,4.6-2.5l3.7-11.3c0.3-0.6,0.8-0.9,1.4-0.9c0.7,0,1.2,0.3,1.4,0.9l3.7,11.3
		c0.9,2.2,2.5,3,4.8,2.5c2.1-0.9,2.8-2.5,2.3-4.8l-4.5-13.3c-0.2-0.6-0.3-1.2-0.3-1.9v-7.7c2.9-0.6,5.7-1.5,8.3-2.6l1.9-0.8
		c2-1,2.6-2.6,1.9-4.8c-1-2.1-2.6-2.7-4.8-2l-1.9,0.8c-4.1,1.8-8.4,2.6-12.8,2.6c-4.4,0-8.7-0.9-12.8-2.6l-1.9-0.8H35.5z M55.4,31.9
		c1-2.1,1-4.1,0-6.2c-1.2-2-3-3-5.4-3.1c-2.4,0.1-4.2,1.1-5.4,3.1c-1,2.1-1,4.1,0,6.2c1.2,2,3,3,5.4,3.1
		C52.4,34.9,54.2,33.9,55.4,31.9z"/>
</svg>
